<?xml version="1.0" standalone="no"?>
<!DOCTYPE svg PUBLIC "-//W3C//DTD SVG 20010904//EN"
 "http://www.w3.org/TR/2001/REC-SVG-20010904/DTD/svg10.dtd">
<svg version="1.0" xmlns="http://www.w3.org/2000/svg"
 width="32.000000pt" height="32.000000pt" viewBox="0 0 32.000000 32.000000"
 preserveAspectRatio="xMidYMid meet">

<g transform="translate(0.000000,32.000000) scale(0.100000,-0.100000)"
fill="#000000" stroke="none">
<path d="M50 173 c0 -71 4 -113 12 -121 16 -16 200 -16 216 0 15 15 16 54 2
63 -5 3 -10 42 -10 87 0 72 -2 79 -17 73 -10 -4 -24 -7 -30 -6 -17 2 -109 2
-125 0 -7 -1 -21 2 -30 6 -17 7 -18 -2 -18 -102z m200 15 l0 -58 -90 0 -90 0
0 58 0 58 90 0 90 0 0 -58z m-154 -114 c-5 -13 -10 -14 -18 -6 -6 6 -8 18 -4
28 5 13 10 14 18 6 6 -6 8 -18 4 -28z m169 11 c0 -18 -8 -20 -72 -23 -73 -3
-73 -3 -73 23 0 26 0 26 73 23 64 -3 72 -5 72 -23z"/>
<path d="M90 210 c0 -5 11 -10 25 -10 14 0 25 5 25 10 0 6 -11 10 -25 10 -14
0 -25 -4 -25 -10z"/>
<path d="M160 210 c0 -5 16 -10 35 -10 19 0 35 5 35 10 0 6 -16 10 -35 10 -19
0 -35 -4 -35 -10z"/>
<path d="M90 170 c0 -5 7 -10 15 -10 8 0 15 5 15 10 0 6 -7 10 -15 10 -8 0
-15 -4 -15 -10z"/>
<path d="M140 170 c0 -5 11 -10 25 -10 14 0 25 5 25 10 0 6 -11 10 -25 10 -14
0 -25 -4 -25 -10z"/>
<path d="M210 170 c0 -5 5 -10 10 -10 6 0 10 5 10 10 0 6 -4 10 -10 10 -5 0
-10 -4 -10 -10z"/>
</g>
</svg>
