<?xml version="1.0" standalone="no"?>
<!DOCTYPE svg PUBLIC "-//W3C//DTD SVG 20010904//EN"
 "http://www.w3.org/TR/2001/REC-SVG-20010904/DTD/svg10.dtd">
<svg version="1.0" xmlns="http://www.w3.org/2000/svg"
 width="50.000000pt" height="50.000000pt" viewBox="0 0 50.000000 50.000000"
 preserveAspectRatio="xMidYMid meet">

<g transform="translate(0.000000,50.000000) scale(0.100000,-0.100000)"
fill="#000000" stroke="none">
<path d="M210 456 c0 -24 -26 -60 -39 -54 -62 33 -61 33 -84 10 -21 -21 -21
-23 -4 -51 9 -16 17 -31 17 -34 0 -15 -34 -37 -56 -37 -23 0 -25 -3 -22 -37 3
-32 7 -38 34 -45 40 -10 48 -30 26 -68 -16 -28 -16 -30 5 -52 22 -22 24 -22
52 -5 16 9 31 17 34 17 15 0 37 -34 37 -56 0 -23 3 -25 37 -22 32 3 38 7 45
34 10 40 32 49 69 27 28 -17 30 -17 52 5 21 22 21 24 5 52 -22 38 -14 58 26
68 27 7 31 13 34 45 3 34 1 37 -22 37 -22 0 -56 22 -56 37 0 3 8 18 17 34 17
28 17 30 -5 52 -22 21 -24 21 -52 5 -38 -22 -58 -14 -68 26 -7 27 -13 31 -45
34 -34 3 -37 1 -37 -22z m65 -28 c13 -43 55 -60 85 -33 16 14 22 15 35 5 13
-11 13 -15 -2 -41 -22 -38 -6 -74 36 -84 42 -9 41 -38 -1 -50 -43 -13 -60 -55
-33 -85 14 -16 15 -22 5 -35 -11 -13 -15 -13 -41 2 -38 23 -77 6 -85 -37 -9
-41 -40 -41 -49 1 -10 42 -46 58 -84 36 -26 -15 -30 -15 -41 -2 -10 13 -9 19
5 35 27 30 10 72 -33 85 -42 12 -43 41 -1 50 42 10 58 46 36 84 -15 26 -15 30
-2 41 13 10 19 9 35 -5 30 -27 71 -10 84 33 12 42 39 42 51 0z"/>
<path d="M195 305 c-33 -32 -33 -78 0 -110 32 -33 78 -33 110 0 50 49 15 135
-55 135 -19 0 -40 -9 -55 -25z m95 -15 c11 -11 20 -29 20 -40 0 -26 -34 -60
-60 -60 -26 0 -60 34 -60 60 0 11 9 29 20 40 11 11 29 20 40 20 11 0 29 -9 40
-20z"/>
</g>
</svg>
