<?xml version="1.0" standalone="no"?>
<!DOCTYPE svg PUBLIC "-//W3C//DTD SVG 20010904//EN"
 "http://www.w3.org/TR/2001/REC-SVG-20010904/DTD/svg10.dtd">
<svg version="1.0" xmlns="http://www.w3.org/2000/svg"
 width="32.000000pt" height="32.000000pt" viewBox="0 0 32.000000 32.000000"
 preserveAspectRatio="xMidYMid meet">

<g transform="translate(0.000000,32.000000) scale(0.100000,-0.100000)"
fill="#000000" stroke="none">
<path d="M66 234 c-20 -19 -21 -49 -3 -66 12 -10 8 -18 -20 -44 -56 -53 -47
-64 57 -64 80 0 90 2 90 18 0 41 54 57 83 24 10 -10 17 -24 17 -30 0 -7 5 -12
10 -12 16 0 11 25 -10 53 -13 16 -16 28 -10 32 31 19 -5 85 -47 85 -38 0 -72
-67 -43 -85 8 -5 7 -11 0 -21 -10 -11 -17 -10 -40 8 -25 18 -27 23 -14 35 29
29 6 83 -36 83 -10 0 -26 -7 -34 -16z m198 -46 c8 -14 7 -21 -6 -34 -30 -30
-75 9 -48 42 16 18 39 15 54 -8z"/>
</g>
</svg>
