<?xml version="1.0" standalone="no"?>
<!DOCTYPE svg PUBLIC "-//W3C//DTD SVG 20010904//EN"
 "http://www.w3.org/TR/2001/REC-SVG-20010904/DTD/svg10.dtd">
<svg version="1.0" xmlns="http://www.w3.org/2000/svg"
 width="774.000000pt" height="632.000000pt" viewBox="0 0 774.000000 632.000000"
 preserveAspectRatio="xMidYMid meet">

<g transform="translate(0.000000,632.000000) scale(0.100000,-0.100000)"
fill="#000000" stroke="none">
<path d="M2515 5948 c-88 -117 -389 -516 -668 -888 l-509 -675 252 -7 c139 -4
254 -9 257 -12 3 -2 -46 -66 -109 -142 -62 -75 -135 -165 -163 -199 -27 -33
-138 -169 -247 -301 -449 -547 -578 -705 -578 -710 0 -2 53 -4 118 -4 190 0
463 -13 460 -21 -2 -6 -148 -133 -273 -238 -66 -55 -507 -431 -540 -460 -23
-20 -110 -94 -194 -166 l-154 -130 434 -6 c239 -3 668 -9 954 -13 286 -3 602
-9 703 -12 l182 -6 0 168 c0 93 3 268 7 388 l6 219 326 -6 c179 -4 384 -7 454
-7 l128 0 72 -66 c98 -91 280 -260 290 -270 4 -4 42 26 85 68 42 41 109 101
147 133 39 32 90 76 115 98 l45 39 -118 114 c-64 63 -117 118 -117 122 0 4 62
6 137 5 76 -2 222 -4 324 -5 l186 -3 -46 60 c-67 89 -863 1115 -943 1218 -38
49 -72 96 -75 104 -6 14 21 15 250 11 142 -2 257 -3 257 -2 0 2 -107 153 -237
336 -549 773 -991 1396 -1019 1435 -16 23 -31 42 -34 43 -3 0 -77 -95 -165
-212z"/>
<path d="M4238 5263 c7 -3 16 -2 19 1 4 3 -2 6 -13 5 -11 0 -14 -3 -6 -6z"/>
<path d="M3718 5253 c6 -2 18 -2 25 0 6 3 1 5 -13 5 -14 0 -19 -2 -12 -5z"/>
<path d="M3500 5231 c0 -5 5 -13 10 -16 6 -3 10 -2 10 4 0 5 -4 13 -10 16 -5
3 -10 2 -10 -4z"/>
<path d="M3938 5063 c6 -2 18 -2 25 0 6 3 1 5 -13 5 -14 0 -19 -2 -12 -5z"/>
<path d="M4618 5013 c7 -3 16 -2 19 1 4 3 -2 6 -13 5 -11 0 -14 -3 -6 -6z"/>
<path d="M6170 4405 c30 -30 57 -55 59 -55 3 0 -19 25 -49 55 -30 30 -57 55
-59 55 -3 0 19 -25 49 -55z"/>
<path d="M6000 4406 c0 -2 8 -10 18 -17 15 -13 16 -12 3 4 -13 16 -21 21 -21
13z"/>
<path d="M6075 4340 c10 -11 20 -20 23 -20 3 0 -3 9 -13 20 -10 11 -20 20 -23
20 -3 0 3 -9 13 -20z"/>
<path d="M6135 4290 c10 -11 20 -20 23 -20 3 0 -3 9 -13 20 -10 11 -20 20 -23
20 -3 0 3 -9 13 -20z"/>
<path d="M6260 4306 c0 -2 8 -10 18 -17 15 -13 16 -12 3 4 -13 16 -21 21 -21
13z"/>
<path d="M6230 4195 c30 -30 57 -55 59 -55 3 0 -19 25 -49 55 -30 30 -57 55
-59 55 -3 0 19 -25 49 -55z"/>
<path d="M6310 4246 c0 -2 8 -10 18 -17 15 -13 16 -12 3 4 -13 16 -21 21 -21
13z"/>
<path d="M6340 4206 c0 -2 8 -10 18 -17 15 -13 16 -12 3 4 -13 16 -21 21 -21
13z"/>
<path d="M4057 4114 c-11 -11 -8 -224 3 -265 26 -92 146 -133 276 -94 27 8 52
15 57 15 4 0 7 -49 7 -110 l0 -110 35 0 35 0 0 143 c0 79 3 205 7 280 l6 137
-41 0 -42 0 0 -135 c0 -155 5 -147 -107 -167 -63 -10 -73 -10 -109 8 -51 25
-63 60 -63 192 -1 81 -4 102 -15 102 -8 0 -21 2 -28 5 -8 3 -17 2 -21 -1z"/>
<path d="M4648 4105 c-5 -5 -8 -99 -8 -209 -1 -260 -11 -304 -66 -291 -17 4
-23 -1 -27 -23 -7 -37 -2 -42 48 -42 56 0 93 30 105 85 5 22 10 124 10 228 l0
187 105 0 106 0 -7 -250 -7 -250 35 0 c33 0 36 2 42 38 3 20 6 146 6 280 l0
242 -48 0 c-27 0 -102 3 -168 6 -65 4 -122 3 -126 -1z"/>
<path d="M5110 3830 c0 -148 0 -273 0 -277 0 -5 15 -9 35 -11 l35 -3 0 233 c0
128 4 227 8 221 5 -7 39 -112 78 -233 60 -191 72 -221 91 -226 13 -4 29 -4 37
-1 7 3 49 106 92 229 l79 223 3 -227 2 -228 35 0 35 0 0 138 c0 75 3 201 7
280 l6 143 -54 -3 -54 -3 -77 -215 c-43 -118 -81 -222 -84 -230 -4 -9 -39 85
-83 220 l-77 235 -57 3 -57 3 0 -271z"/>
<path d="M5720 4060 c0 -30 1 -30 53 -30 28 0 69 -3 90 -6 l37 -7 0 -243 0
-244 35 0 35 0 0 199 c0 109 3 219 6 245 l7 46 88 0 89 0 0 29 c0 27 -2 28
-61 35 -34 3 -133 6 -220 6 l-159 0 0 -30z"/>
<path d="M6330 4086 c0 -2 8 -10 18 -17 15 -13 16 -12 3 4 -13 16 -21 21 -21
13z"/>
<path d="M6441 3943 c7 -12 15 -20 18 -17 3 2 -3 12 -13 22 -17 16 -18 16 -5
-5z"/>
<path d="M6541 3890 c14 -31 19 -36 19 -24 0 6 -7 19 -16 30 -14 18 -14 18 -3
-6z"/>
<path d="M6560 3750 c6 -11 13 -20 16 -20 2 0 0 9 -6 20 -6 11 -13 20 -16 20
-2 0 0 -9 6 -20z"/>
<path d="M6677 3534 c-3 -6 5 -42 19 -80 16 -44 23 -56 19 -33 -9 61 -31 124
-38 113z"/>
<path d="M4717 3380 c-21 -22 -51 -47 -68 -55 -17 -9 -29 -24 -29 -35 0 -27
20 -25 64 5 20 14 39 25 42 25 3 0 4 -75 3 -167 l-3 -168 25 0 24 0 3 218 c2
170 0 217 -10 217 -7 0 -30 -18 -51 -40z"/>
<path d="M4980 3383 c-22 -20 -33 -40 -37 -70 -5 -38 -2 -46 26 -72 30 -28 31
-30 11 -36 -29 -9 -60 -63 -60 -105 0 -81 71 -136 164 -127 41 4 55 11 83 41
28 31 33 43 33 87 0 46 -4 56 -32 82 l-33 31 29 28 c25 25 28 34 23 71 -9 63
-51 97 -122 97 -46 0 -60 -5 -85 -27z m135 -38 c29 -28 31 -51 10 -82 -38 -55
-135 -24 -135 43 0 24 47 64 75 64 14 0 37 -11 50 -25z m4 -181 c78 -66 2
-180 -93 -140 -61 25 -73 90 -27 137 37 37 79 38 120 3z"/>
<path d="M5375 3403 c-63 -16 -103 -85 -112 -191 -11 -129 30 -221 106 -242
79 -21 149 20 171 98 15 59 4 108 -37 148 -29 29 -40 34 -82 34 -33 0 -56 -6
-74 -20 -14 -11 -28 -20 -32 -20 -9 0 6 71 21 102 30 59 105 65 139 11 35 -57
82 -34 51 25 -24 47 -89 70 -151 55z m91 -214 c22 -18 34 -75 23 -114 -28
-101 -154 -80 -166 27 -5 43 -3 50 26 79 27 27 37 31 67 26 20 -3 42 -11 50
-18z"/>
<path d="M5662 3380 c-81 -50 -81 -184 1 -244 37 -27 99 -26 138 3 l29 22 0
-32 c0 -111 -122 -169 -167 -79 -7 14 -17 25 -23 24 -27 -3 -30 -5 -30 -24 0
-11 13 -34 28 -51 39 -44 111 -52 161 -17 58 39 75 79 79 189 5 115 -6 157
-54 199 -43 37 -110 42 -162 10z m135 -44 c24 -21 28 -32 28 -76 0 -44 -4 -55
-28 -76 -16 -13 -41 -24 -57 -24 -16 0 -41 11 -57 24 -23 20 -28 32 -28 71 0
40 5 51 33 76 39 35 72 37 109 5z"/>
<path d="M7331 3385 c1 -25 27 -106 28 -85 0 8 -6 35 -13 60 -8 25 -15 36 -15
25z"/>
<path d="M7401 3024 c0 -11 3 -14 6 -6 3 7 2 16 -1 19 -3 4 -6 -2 -5 -13z"/>
<path d="M7568 2637 c7 -8 9 -17 5 -20 -3 -4 -1 -7 5 -7 18 0 14 27 -4 34 -13
5 -14 4 -6 -7z"/>
<path d="M105 1860 c3 -5 8 -10 11 -10 2 0 4 5 4 10 0 6 -5 10 -11 10 -5 0 -7
-4 -4 -10z"/>
<path d="M6522 1606 c7 -8 16 -12 21 -9 11 7 -2 23 -19 23 -12 0 -12 -2 -2
-14z"/>
<path d="M7019 1563 c-13 -16 -12 -17 4 -4 16 13 21 21 13 21 -2 0 -10 -8 -17
-17z"/>
<path d="M400 1567 c0 -2 15 -16 33 -33 l32 -29 -29 33 c-28 30 -36 37 -36 29z"/>
<path d="M6590 1546 c0 -2 8 -10 18 -17 15 -13 16 -12 3 4 -13 16 -21 21 -21
13z"/>
<path d="M6979 1523 c-13 -16 -12 -17 4 -4 16 13 21 21 13 21 -2 0 -10 -8 -17
-17z"/>
<path d="M6339 1443 l-24 -28 28 24 c25 23 32 31 24 31 -2 0 -14 -12 -28 -27z"/>
<path d="M6829 1383 c-13 -16 -12 -17 4 -4 16 13 21 21 13 21 -2 0 -10 -8 -17
-17z"/>
<path d="M6759 1357 c26 -28 31 -32 31 -19 0 4 -13 16 -28 26 l-27 19 24 -26z"/>
<path d="M6204 1328 l-19 -23 23 19 c12 11 22 21 22 23 0 8 -8 2 -26 -19z"/>
<path d="M6159 1293 c-13 -16 -12 -17 4 -4 16 13 21 21 13 21 -2 0 -10 -8 -17
-17z"/>
<path d="M1145 1290 c-4 -6 3 -10 14 -10 25 0 27 6 6 13 -8 4 -17 2 -20 -3z"/>
<path d="M6039 1203 c-13 -16 -12 -17 4 -4 16 13 21 21 13 21 -2 0 -10 -8 -17
-17z"/>
<path d="M1024 1158 l-19 -23 23 19 c21 18 27 26 19 26 -2 0 -12 -10 -23 -22z"/>
<path d="M6810 1166 c0 -2 7 -9 15 -16 13 -11 14 -10 9 4 -5 14 -24 23 -24 12z"/>
<path d="M4008 1093 c7 -3 16 -2 19 1 4 3 -2 6 -13 5 -11 0 -14 -3 -6 -6z"/>
<path d="M941 1069 c-13 -11 -22 -22 -19 -24 2 -3 15 6 28 20 28 30 24 32 -9
4z"/>
<path d="M5774 1034 c-18 -14 -18 -15 4 -4 12 6 22 13 22 15 0 8 -5 6 -26 -11z"/>
<path d="M5698 994 c-38 -20 -36 -28 2 -9 17 9 30 18 30 20 0 7 -1 6 -32 -11z"/>
<path d="M1761 914 c0 -11 3 -14 6 -6 3 7 2 16 -1 19 -3 4 -6 -2 -5 -13z"/>
<path d="M5487 883 c-11 -10 -8 -53 3 -53 6 0 11 60 4 60 0 0 -4 -3 -7 -7z"/>
<path d="M969 857 c7 -7 14 -8 21 -1 6 6 2 10 -12 11 -16 2 -18 -1 -9 -10z"/>
<path d="M5531 684 c0 -11 3 -14 6 -6 3 7 2 16 -1 19 -3 4 -6 -2 -5 -13z"/>
<path d="M2977 653 c-4 -3 -7 -18 -6 -32 l1 -26 11 27 c9 24 17 28 61 31 l51
3 -56 2 c-31 1 -59 -1 -62 -5z"/>
<path d="M3508 643 c6 -2 18 -2 25 0 6 3 1 5 -13 5 -14 0 -19 -2 -12 -5z"/>
<path d="M3985 630 c3 -5 8 -10 11 -10 2 0 4 5 4 10 0 6 -5 10 -11 10 -5 0 -7
-4 -4 -10z"/>
<path d="M1760 620 c0 -5 5 -10 11 -10 5 0 7 5 4 10 -3 6 -8 10 -11 10 -2 0
-4 -4 -4 -10z"/>
<path d="M5475 600 c3 -5 8 -10 11 -10 2 0 4 5 4 10 0 6 -5 10 -11 10 -5 0 -7
-4 -4 -10z"/>
<path d="M2961 544 c0 -11 3 -14 6 -6 3 7 2 16 -1 19 -3 4 -6 -2 -5 -13z"/>
<path d="M2951 464 c0 -11 3 -14 6 -6 3 7 2 16 -1 19 -3 4 -6 -2 -5 -13z"/>
<path d="M5522 450 c0 -14 2 -19 5 -12 2 6 2 18 0 25 -3 6 -5 1 -5 -13z"/>
<path d="M2208 453 c7 -3 16 -2 19 1 4 3 -2 6 -13 5 -11 0 -14 -3 -6 -6z"/>
<path d="M2248 443 c7 -3 16 -2 19 1 4 3 -2 6 -13 5 -11 0 -14 -3 -6 -6z"/>
<path d="M3757 443 c18 -2 50 -2 70 0 21 2 7 4 -32 4 -38 0 -55 -2 -38 -4z"/>
<path d="M4036 437 c3 -10 9 -15 12 -12 3 3 0 11 -7 18 -10 9 -11 8 -5 -6z"/>
<path d="M2318 423 c7 -3 16 -2 19 1 4 3 -2 6 -13 5 -11 0 -14 -3 -6 -6z"/>
<path d="M2941 394 c0 -11 3 -14 6 -6 3 7 2 16 -1 19 -3 4 -6 -2 -5 -13z"/>
<path d="M4808 403 c7 -3 16 -2 19 1 4 3 -2 6 -13 5 -11 0 -14 -3 -6 -6z"/>
<path d="M2458 393 c7 -3 16 -2 19 1 4 3 -2 6 -13 5 -11 0 -14 -3 -6 -6z"/>
<path d="M4678 383 c6 -2 18 -2 25 0 6 3 1 5 -13 5 -14 0 -19 -2 -12 -5z"/>
<path d="M2578 373 c6 -2 18 -2 25 0 6 3 1 5 -13 5 -14 0 -19 -2 -12 -5z"/>
<path d="M4060 368 c0 -12 7 -18 23 -17 15 0 17 2 7 6 -8 3 -18 11 -22 17 -5
7 -8 4 -8 -6z"/>
<path d="M4618 373 c7 -3 16 -2 19 1 4 3 -2 6 -13 5 -11 0 -14 -3 -6 -6z"/>
<path d="M2643 363 c9 -2 23 -2 30 0 6 3 -1 5 -18 5 -16 0 -22 -2 -12 -5z"/>
<path d="M2713 353 c9 -2 25 -2 35 0 9 3 1 5 -18 5 -19 0 -27 -2 -17 -5z"/>
<path d="M4368 353 c12 -2 30 -2 40 0 9 3 -1 5 -23 4 -22 0 -30 -2 -17 -4z"/>
<path d="M2813 343 c15 -2 37 -2 50 0 12 2 0 4 -28 4 -27 0 -38 -2 -22 -4z"/>
<path d="M2961 224 c0 -11 3 -14 6 -6 3 7 2 16 -1 19 -3 4 -6 -2 -5 -13z"/>
<path d="M2568 183 c7 -3 16 -2 19 1 4 3 -2 6 -13 5 -11 0 -14 -3 -6 -6z"/>
<path d="M2978 163 c5 -21 7 -23 10 -9 2 10 0 22 -6 28 -6 6 -7 0 -4 -19z"/>
<path d="M4533 163 c9 -2 23 -2 30 0 6 3 -1 5 -18 5 -16 0 -22 -2 -12 -5z"/>
</g>
</svg>
